<?xml version="1.0" encoding="UTF-8" standalone="no"?>
<!-- Created with Inkscape (http://www.inkscape.org/) -->

<svg
   width="1000"
   height="500"
   viewBox="0 0 1000 500"
   version="1.1"
   id="svg5"
   inkscape:version="1.2.2 (b0a8486541, 2022-12-01)"
   sodipodi:docname="logo.svg"
   inkscape:export-filename="logo.png"
   inkscape:export-xdpi="96"
   inkscape:export-ydpi="96"
   xmlns:inkscape="http://www.inkscape.org/namespaces/inkscape"
   xmlns:sodipodi="http://sodipodi.sourceforge.net/DTD/sodipodi-0.dtd"
   xmlns="http://www.w3.org/2000/svg"
   xmlns:svg="http://www.w3.org/2000/svg">
  <sodipodi:namedview
     id="namedview7"
     pagecolor="#ffffff"
     bordercolor="#000000"
     borderopacity="0.25"
     inkscape:showpageshadow="2"
     inkscape:pageopacity="0.0"
     inkscape:pagecheckerboard="0"
     inkscape:deskcolor="#d1d1d1"
     inkscape:document-units="px"
     showgrid="false"
     inkscape:zoom="0.81"
     inkscape:cx="610.49383"
     inkscape:cy="297.53086"
     inkscape:window-width="1920"
     inkscape:window-height="1007"
     inkscape:window-x="0"
     inkscape:window-y="0"
     inkscape:window-maximized="1"
     inkscape:current-layer="text788" />
  <defs
     id="defs2">
    <rect
       x="42.379542"
       y="41.345895"
       width="907.5424"
       height="407.25707"
       id="rect790" />
  </defs>
  <g
     inkscape:label="Layer 1"
     inkscape:groupmode="layer"
     id="layer1">
    <g
       aria-label="LinkChat"
       transform="translate(10.336473,118.86945)"
       id="text788"
       style="font-size:192px;font-family:'Space Mono';-inkscape-font-specification:'Space Mono';white-space:pre;shape-inside:url(#rect790);fill:#e1ccff;stroke:#e5d5ff;stroke-width:0.96;stroke-linecap:round;stroke-linejoin:round">
      <rect
         style="fill:#ffffff;stroke:#0000ff;stroke-width:0;stroke-linecap:square;stroke-linejoin:miter;stroke-dasharray:none"
         id="rect2472"
         width="1000"
         height="500"
         x="-10.336473"
         y="-118.86945"
         ry="100.61729" />
      <rect
         style="fill:#0000ff;stroke:#0000ff;stroke-width:0;stroke-linecap:square;stroke-linejoin:miter;stroke-dasharray:none"
         id="rect2278"
         width="115.88485"
         height="258.42935"
         x="229.36703"
         y="55.198029"
         ry="57.942425"
         transform="rotate(3.169253)" />
      <path
         d="M 77.823572,197.33021 V 61.010216 H 109.11957 V 169.87421 h 58.944 l -1.92,27.456 z"
         style="font-weight:bold;font-family:Livvic;-inkscape-font-specification:'Livvic Bold';fill:#000000;stroke-width:0;stroke-dasharray:none"
         id="path1431" />
      <path
         d="m 207.80749,99.602214 v 97.727996 h -29.376 V 99.602214 Z m -14.784,-11.52 q -8.448,0 -13.44,-5.184 -4.992,-5.183999 -4.992,-12.287998 0,-7.104 4.8,-12.288 4.992,-5.184001 13.632,-5.184001 8.448,0 13.44,5.184001 4.992,5.184 4.992,12.288 0,7.103999 -4.992,12.287998 -4.992,5.184 -13.44,5.184 z"
         style="font-weight:bold;font-family:Livvic;-inkscape-font-specification:'Livvic Bold';fill:#000000;stroke-width:0;stroke-dasharray:none"
         id="path1433" />
      <path
         d="m 245.85039,183.18211 -0.78588,-73.20796 h 21.86484 l -1.00694,15.67938 c 2.97285,-5.37031 6.76084,-9.49393 11.36396,-12.37089 4.69903,-2.97285 9.92549,-4.45927 15.6794,-4.45927 8.72675,0 15.24785,2.97284 19.56327,8.91854 4.31543,5.8498 6.4252,14.28887 6.3293,25.31718 l -2.15607,47.84111 c -2.01242,24.4271 -28.39343,41.81942 -50.76684,25.7014 l 0.12177,-15.95577 c 18.01466,16.80944 32.17774,3.88606 31.02669,-10.0134 l -0.23425,-45.99102 c 0.0959,-4.98671 -0.67129,-8.77469 -2.30157,-11.36395 -1.53437,-2.68516 -4.02772,-4.02774 -7.48007,-4.02774 -2.87696,0 -5.51416,0.86309 -7.91162,2.58926 -2.39747,1.63027 -4.50723,4.45928 -6.32929,8.48701 -1.72617,4.02774 -3.11671,9.54189 -4.17159,16.54248 -1.05488,7.00057 -1.63027,5.2864 -1.72617,15.83522 -9.64592,0.26196 -16.14831,2.61962 -21.07894,10.47842 z"
         style="font-weight:bold;font-size:192px;font-family:Livvic;-inkscape-font-specification:'Livvic Bold';white-space:pre;shape-inside:url(#rect790);fill:#ffffff;stroke:#e5d5ff;stroke-width:0;stroke-linecap:round;stroke-linejoin:round;stroke-dasharray:none"
         id="path1435-6-2-8-2-7"
         sodipodi:nodetypes="cccccsccccccccsccscc" />
      <path
         d="m 308.74435,218.84372 0.78588,73.20796 h -21.86484 l 1.00694,-15.67938 c -2.97285,5.37031 -6.76084,9.49394 -11.36396,12.3709 -4.69903,2.97284 -9.92549,4.45927 -15.6794,4.45927 -8.72675,0 -15.24785,-2.97285 -19.56327,-8.91854 -4.31543,-5.84982 -6.4252,-14.28888 -6.3293,-25.31718 l 2.15607,-47.84112 c 2.01242,-24.42711 28.39343,-41.81942 50.76683,-25.7014 L 288.53754,201.38 c -18.01466,-16.80944 -32.17774,-3.88606 -31.02669,10.01339 l 0.23425,45.99101 c -0.0959,4.98674 0.67129,8.77473 2.30156,11.36397 1.53437,2.68517 4.02773,4.02775 7.48008,4.02775 2.87696,0 5.51416,-0.86309 7.91162,-2.58927 2.39747,-1.63027 4.50722,-4.45927 6.32929,-8.48701 1.72617,-4.02774 3.11671,-9.54189 4.17158,-16.54247 1.05488,-7.00059 1.63028,-5.2864 1.72617,-15.83523 9.64592,-0.26196 16.14832,-2.61962 21.07895,-10.47842 z"
         style="font-weight:bold;font-size:192px;font-family:Livvic;-inkscape-font-specification:'Livvic Bold';white-space:pre;shape-inside:url(#rect790);fill:#ffffff;stroke:#e5d5ff;stroke-width:0;stroke-linecap:round;stroke-linejoin:round;stroke-dasharray:none"
         id="path1435-6-2-8-2-7-2"
         sodipodi:nodetypes="cccccsccccccccsccscc" />
      <path
         d="M 349.88742,197.33021 V 55.250215 h 29.376 v 83.327995 l 36.288,-38.975996 h 34.944 l -44.16,47.231996 q 4.416,2.688 7.296,7.104 l 7.488,11.712 q 5.952,9.216 16.704,9.216 5.76,0 10.944,-2.88 l 6.336,21.696 q -5.376,3.072 -11.136,4.416 -5.568,1.344 -11.904,1.152 -12.48,-0.192 -20.736,-4.608 -8.064,-4.416 -14.592,-14.976 l -7.488,-11.712 q -2.688,-4.224 -4.992,-6.912 -2.304,-2.688 -4.992,-4.224 v 40.512 z"
         style="font-weight:bold;font-family:Livvic;-inkscape-font-specification:'Livvic Bold';fill:#000000;stroke-width:0;stroke-dasharray:none"
         id="path1437" />
      <path
         d="m 580.67157,170.64221 q -8.448,13.824 -23.232,21.312 -14.784,7.296 -32.832,7.296 -22.08,0 -37.824,-8.064 -15.552,-8.064 -24,-23.04 -8.256,-15.168 -8.256,-36.288 0,-21.696 9.216,-38.015996 9.216,-16.319999 25.536,-25.535998 16.512,-9.216 38.016,-9.216 18.816,0 31.68,6.912 13.056,6.912 21.888,20.927998 l -24,17.087996 q -4.608,-8.831996 -12.672,-12.863996 -8.064,-4.032 -17.28,-4.032 -12.096,0 -21.12,5.568 -9.024,5.568 -14.208,15.551996 -4.992,9.984 -4.992,23.04 0,19.008 9.984,29.568 9.984,10.56 28.224,10.56 9.792,0 18.432,-4.608 8.832,-4.8 14.208,-14.4 z"
         style="fill:#0000ff;stroke-width:0;stroke-dasharray:none"
         id="path1439" />
      <path
         d="M 589.50363,197.33021 V 55.250215 h 29.376 l 0.192,44.351999 -1.536,20.543996 q 5.952,-10.56 15.168,-16.32 9.408,-5.759996 20.736,-5.759996 17.472,0 26.112,11.903996 8.64,11.712 8.448,33.792 l -0.384,53.568 h -29.376 l 0.384,-51.456 q 0.192,-9.984 -3.072,-15.168 -3.072,-5.376 -9.984,-5.376 -5.76,0 -10.56,3.456 -4.8,3.264 -8.448,11.328 -3.456,8.064 -5.568,22.08 -2.112,14.016 -2.304,35.136 z"
         style="fill:#0000ff;stroke-width:0;stroke-dasharray:none"
         id="path1441" />
      <path
         d="m 805.11948,99.986214 v 97.343996 h -29.568 l 0.96,-14.592 q -10.56,16.512 -31.296,16.512 -13.056,0 -22.272,-5.952 -9.216,-5.952 -14.016,-16.512 -4.8,-10.56 -4.8,-24.192 0,-16.32 6.72,-28.608 6.72,-12.288 18.048,-19.008 11.328,-6.911996 25.344,-6.911996 9.216,0 16.32,3.839996 7.104,3.648 10.944,9.792 l 2.496,-11.711996 z m -48,23.615996 q -10.56,0 -16.704,7.872 -5.952,7.872 -5.952,20.16 0,10.56 4.608,16.32 4.8,5.76 12.864,5.76 9.792,0 16.704,-8.064 7.104,-8.064 7.104,-21.12 0,-9.792 -4.992,-15.36 -4.992,-5.568 -13.632,-5.568 z"
         style="fill:#0000ff;stroke-width:0;stroke-dasharray:none"
         id="path1443" />
      <path
         d="m 871.74348,199.25021 q -18.048,0 -28.608,-9.984 -10.56,-10.176 -10.368,-26.688 l 0.768,-38.592 h -16.128 V 99.602214 h 16.512 l 0.192,-19.968 h 29.184 l -0.192,19.968 h 30.528 v 24.383996 h -30.912 l -0.576,35.328 q 0,6.912 3.648,10.752 3.648,3.84 10.944,3.84 4.224,0 8.064,-0.96 4.032,-1.152 8.256,-4.224 l 8.448,22.464 q -9.792,8.064 -29.76,8.064 z"
         style="fill:#0000ff;stroke-width:0;stroke-dasharray:none"
         id="path1445" />
    </g>
  </g>
</svg>
